<?xml version="1.0" encoding="iso-8859-1"?>
<!-- Uploaded to: SVG Repo, www.svgrepo.com, Generator: SVG Repo Mixer Tools -->
<svg fill="#000000" height="800px" width="800px" version="1.1" id="Layer_1" xmlns="http://www.w3.org/2000/svg" xmlns:xlink="http://www.w3.org/1999/xlink" 
	 viewBox="0 0 511.999 511.999" xml:space="preserve">
<g>
	<g>
		<path d="M434.83,1.624c-7.967-3.301-17.148-1.478-23.249,4.625L383.999,33.83L356.418,6.249c-8.33-8.331-21.838-8.331-30.17,0
			L298.666,33.83L271.085,6.249c-8.33-8.331-21.838-8.331-30.169,0L213.333,33.83L185.752,6.249c-8.33-8.331-21.838-8.331-30.169,0
			L128,33.83L100.419,6.249c-6.1-6.103-15.277-7.926-23.249-4.625C69.198,4.927,64,12.705,64,21.333v469.332
			c0,11.782,9.552,21.333,21.333,21.333h341.332c11.782,0,21.333-9.552,21.333-21.333V21.333
			C447.999,12.705,442.802,4.927,434.83,1.624z M298.666,426.667h-128c-11.782,0-21.333-9.553-21.333-21.333
			c0-11.783,9.552-21.333,21.333-21.333h128c11.782,0,21.333,9.55,21.333,21.333C319.999,417.114,310.447,426.667,298.666,426.667z
			 M341.332,341.334H170.666c-11.782,0-21.333-9.553-21.333-21.333c0-11.783,9.552-21.333,21.333-21.333h170.666
			c11.782,0,21.333,9.55,21.333,21.333C362.666,331.781,353.114,341.334,341.332,341.334z M149.333,234.667
			c0-11.783,9.552-21.333,21.333-21.333h128c11.782,0,21.333,9.55,21.333,21.333c0,11.78-9.552,21.333-21.333,21.333h-128
			C158.885,256.001,149.333,246.448,149.333,234.667z M341.332,170.668H170.666c-11.782,0-21.333-9.553-21.333-21.333
			c0-11.783,9.552-21.333,21.333-21.333h170.666c11.782,0,21.333,9.55,21.333,21.333
			C362.666,161.115,353.116,170.668,341.332,170.668z"/>
	</g>
</g>
</svg>